<?xml version="1.0" encoding="UTF-8" standalone="no"?>
<!DOCTYPE svg PUBLIC "-//W3C//DTD SVG 1.1//EN" "http://www.w3.org/Graphics/SVG/1.1/DTD/svg11.dtd">
<svg version="1.1" xmlns="http://www.w3.org/2000/svg" xmlns:xlink="http://www.w3.org/1999/xlink" preserveAspectRatio="xMidYMid meet" viewBox="0 0 400 400" width="400" height="400"><defs><path d="M310.52 120.29C310.52 181.15 259.82 230.57 197.37 230.57C134.92 230.57 84.21 181.15 84.21 120.29C84.21 59.42 134.92 10 197.37 10C259.82 10 310.52 59.42 310.52 120.29Z" id="a9Xlcb0cX"></path><path d="M310.52 282.21C310.52 343.08 259.82 392.49 197.37 392.49C134.92 392.49 84.21 343.08 84.21 282.21C84.21 221.34 134.92 171.92 197.37 171.92C259.82 171.92 310.52 221.34 310.52 282.21Z" id="b1Hk8X6Gc1"></path><path d="M310.52 282.21C310.52 343.08 259.82 392.49 197.37 392.49C134.92 392.49 84.21 343.08 84.21 282.21C84.21 221.34 134.92 171.92 197.37 171.92C259.82 171.92 310.52 221.34 310.52 282.21Z" id="ebXVYkP4J"></path><path d="M79.15 10L197.37 10L197.37 392.49L79.15 392.49L79.15 10Z" id="f54JF57kTa"></path><path d="M310.52 120.29C310.52 181.15 259.82 230.57 197.37 230.57C134.92 230.57 84.21 181.15 84.21 120.29C84.21 59.42 134.92 10 197.37 10C259.82 10 310.52 59.42 310.52 120.29Z" id="bn7i4kBh2"></path></defs><g><g><g><use xlink:href="#a9Xlcb0cX" opacity="1" fill="#ab2aef" fill-opacity="1"></use></g><g><use xlink:href="#b1Hk8X6Gc1" opacity="1" fill="#ab2aef" fill-opacity="1"></use></g><g><use xlink:href="#ebXVYkP4J" opacity="0.99" fill="#a500fc" fill-opacity="1"></use></g><g><use xlink:href="#f54JF57kTa" opacity="1" fill="#3ed0ce" fill-opacity="1"></use><use xlink:href="#f54JF57kTa" opacity="1" fill="#3ed0ce" fill-opacity="1"></use></g><g><use xlink:href="#bn7i4kBh2" opacity="0.2" fill="#ab2aef" fill-opacity="1"></use></g></g></g></svg>