<?xml version="1.0" encoding="UTF-8" standalone="no"?>
<!DOCTYPE svg PUBLIC "-//W3C//DTD SVG 1.1//EN" "http://www.w3.org/Graphics/SVG/1.1/DTD/svg11.dtd">
<svg version="1.1" xmlns="http://www.w3.org/2000/svg" xmlns:xlink="http://www.w3.org/1999/xlink" preserveAspectRatio="xMidYMid meet" viewBox="0 0 420 420" width="420" height="420"><defs><path d="M345.23 130C345.23 196.23 291.46 250 225.23 250C159 250 105.23 196.23 105.23 130C105.23 63.77 159 10 225.23 10C291.46 10 345.23 63.77 345.23 130Z" id="akVmsyuNp"></path><path d="M345.23 290C345.23 356.23 291.46 410 225.23 410C159 410 105.23 356.23 105.23 290C105.23 223.77 159 170 225.23 170C291.46 170 345.23 223.77 345.23 290Z" id="d4FOQQYiY"></path><path d="M105.23 10L225.23 10L225.23 410L105.23 410L105.23 10Z" id="a4kN0En3wZ"></path><path d="M345.23 130C345.23 196.23 291.46 250 225.23 250C159 250 105.23 196.23 105.23 130C105.23 63.77 159 10 225.23 10C291.46 10 345.23 63.77 345.23 130Z" id="bTsPBPQn8"></path></defs><g><g><g><use xlink:href="#akVmsyuNp" opacity="1" fill="#ab2aef" fill-opacity="1"></use></g><g><g><filter id="shadow9801692" x="96.23" y="161" width="259" height="259" filterUnits="userSpaceOnUse" primitiveUnits="userSpaceOnUse"><feFlood></feFlood><feComposite in2="SourceAlpha" operator="in"></feComposite><feGaussianBlur stdDeviation="1"></feGaussianBlur><feOffset dx="1" dy="1" result="afterOffset"></feOffset><feFlood flood-color="#000000" flood-opacity="0.5"></feFlood><feComposite in2="afterOffset" operator="in"></feComposite><feMorphology operator="dilate" radius="1"></feMorphology><feComposite in2="SourceAlpha" operator="out"></feComposite></filter><path d="M345.23 290C345.23 356.23 291.46 410 225.23 410C159 410 105.23 356.23 105.23 290C105.23 223.77 159 170 225.23 170C291.46 170 345.23 223.77 345.23 290Z" id="c1dbsay3j" fill="white" fill-opacity="1" filter="url(#shadow9801692)"></path></g><use xlink:href="#d4FOQQYiY" opacity="1" fill="#ab2aef" fill-opacity="1"></use></g><g><g><filter id="shadow547686" x="96.23" y="1" width="139" height="419" filterUnits="userSpaceOnUse" primitiveUnits="userSpaceOnUse"><feFlood></feFlood><feComposite in2="SourceAlpha" operator="in"></feComposite><feGaussianBlur stdDeviation="1"></feGaussianBlur><feOffset dx="1" dy="1" result="afterOffset"></feOffset><feFlood flood-color="#000000" flood-opacity="0.5"></feFlood><feComposite in2="afterOffset" operator="in"></feComposite><feMorphology operator="dilate" radius="1"></feMorphology><feComposite in2="SourceAlpha" operator="out"></feComposite></filter><path d="M105.23 10L225.23 10L225.23 410L105.23 410L105.23 10Z" id="atMznGvdh" fill="white" fill-opacity="1" filter="url(#shadow547686)"></path></g><use xlink:href="#a4kN0En3wZ" opacity="1" fill="#3ed0ce" fill-opacity="1"></use><use xlink:href="#a4kN0En3wZ" opacity="1" fill="#3ed0ce" fill-opacity="1"></use></g><g><use xlink:href="#bTsPBPQn8" opacity="0.2" fill="#ab2aef" fill-opacity="1"></use></g></g></g></svg>